:SAMPLES-PER-SECOND 30
:FULLY-SPECIFIED
:DEGREES
190
root  43.3416 39.0121 0.645354 169.807 82.9185 145.509
RightUpLeg  -48.0424 -17.7871 11.4503
RightLeg  18.3059 0.410248 1.16936
RightFoot  5.52649 1.98115 -13.0365
RightToes  0.00048216 0.542163 -0.142577
Spine  60.8307 -4.34564 6.63145
Spine1  6.7917 -0.620369 -0.846981
HEad  -31.2344 -4.78158 0.552492
LeftShoulder1  11.3027 -24.9235 -33.5503
LeftArm  -48.0466 -61.6303 4.79273
LeftForeArm  0.340715 -6.24668 -3.76521
LeftHand  -0.25398 0.0180481 5.50724
RightShoulder  6.31907 14.2828 29.5298
RightArm  -38.2061 57.4552 1.80242
RightForeArm  -15.6346 18.3008 6.01384
RightHand  -1.50086 10.8226 -11.2111
LeftUpLeg  -42.1959 3.29503 -4.53321
LeftLeg  9.78199 -1.93377 -3.88374
LeftFoot  11.4956 -0.57954 2.52217
LeftToes  1.06244e-005 4.65855e-005 -8.18506e-006
191
root  43.1237 38.9756 0.707371 168.933 82.4218 144.8
RightUpLeg  -48.225 -18.3074 11.2977
RightLeg  18.236 0.430928 1.439
RightFoot  5.60364 2.0301 -13.2968
RightToes  0.00048216 0.542163 -0.142577
Spine  60.5273 -4.32915 6.56126
Spine1  6.80915 -0.836067 -0.606807
HEad  -31.0104 -4.84078 0.421032
LeftShoulder1  11.2715 -24.9429 -33.4139
LeftArm  -48.9618 -62.5348 5.51843
LeftForeArm  1.06481 -4.99219 -3.59675
LeftHand  -0.25398 0.0180481 5.50724
RightShoulder  6.27202 14.2516 29.3234
RightArm  -40.0237 57.9157 1.48811
RightForeArm  -13.7105 17.0929 5.99931
RightHand  -1.75718 11.4057 -12.5954
LeftUpLeg  -42.6213 3.8984 -5.35893
LeftLeg  10.1295 -3.29538 -4.07322
LeftFoot  12.3542 -0.446418 1.76335
LeftToes  1.06244e-005 4.65855e-005 -8.18506e-006
192
root  42.839 38.9326 0.781992 168.034 81.7961 144.296
RightUpLeg  -48.2365 -18.9449 11.0809
RightLeg  18.0664 0.451856 1.71849
RightFoot  5.86569 2.14079 -13.8009
RightToes  0.00048216 0.542163 -0.142577
Spine  60.2591 -4.28919 6.37075
Spine1  6.79887 -1.10613 -0.206368
HEad  -30.8571 -4.70154 0.431637
LeftShoulder1  11.3561 -25.0749 -33.5226
LeftArm  -49.671 -63.3348 6.67328
LeftForeArm  2.14051 -3.70349 -3.6184
LeftHand  -0.25398 0.0180481 5.50724
RightShoulder  6.24834 14.2699 29.15
RightArm  -41.3727 58.4412 0.859181
RightForeArm  -12.7746 15.833 6.06673
RightHand  -2.23729 12.2131 -15.1639
LeftUpLeg  -43.0325 4.69637 -6.49587
LeftLeg  10.7215 -5.11081 -4.3044
LeftFoot  13.4947 -0.415332 1.50997
LeftToes  1.06244e-005 4.65855e-005 -8.18506e-006
193
root  42.4873 38.874 0.862222 167.134 81.0964 143.942
RightUpLeg  -48.167 -19.5722 10.7387
RightLeg  17.874 0.31098 2.01222
RightFoot  6.23377 2.3132 -14.5918
RightToes  0.00048216 0.542163 -0.142577
Spine  59.7868 -4.24813 6.1235
Spine1  6.8914 -1.43452 0.177926
HEad  -30.6799 -4.45712 0.661437
LeftShoulder1  11.3956 -25.2754 -33.3793
LeftArm  -49.9399 -64.0472 7.49962
LeftForeArm  3.8224 -2.3506 -3.70525
LeftHand  -0.25398 0.0180481 5.50724
RightShoulder  6.21987 14.3195 28.8859
RightArm  -41.1289 58.9194 0.408064
RightForeArm  -14.1129 14.8041 6.37257
RightHand  -3.08519 13.1193 -19.6289
LeftUpLeg  -43.4565 5.50138 -7.60386
LeftLeg  11.2972 -6.57504 -4.42956
LeftFoot  14.6693 -0.0762532 -0.0431514
LeftToes  1.06244e-005 4.65855e-005 -8.18506e-006
194
root  42.0792 38.806 0.938742 166.459 80.3873 144.095
RightUpLeg  -47.7609 -19.9339 9.97078
RightLeg  17.7032 -0.303754 2.34386
RightFoot  6.59326 2.47397 -15.2835
RightToes  0.00048216 0.542163 -0.142577
Spine  59.137 -4.19182 5.9644
Spine1  7.10227 -1.76919 0.560188
HEad  -30.2555 -4.32189 0.874435
LeftShoulder1  11.3695 -25.4711 -33.0185
LeftArm  -49.3508 -64.8884 7.4159
LeftForeArm  7.10797 -1.27235 -3.92601
LeftHand  -0.25398 0.0180481 5.50724
RightShoulder  6.2043 14.3975 28.6403
RightArm  -39.3118 59.4669 -0.101717
RightForeArm  -16.6486 13.7891 7.00006
RightHand  -4.40301 14.4686 -25.7426
LeftUpLeg  -43.7596 6.90572 -8.88986
LeftLeg  12.0281 -7.91042 -4.35583
LeftFoot  14.7324 1.04443 -4.9336
LeftToes  1.06244e-005 4.65855e-005 -8.18506e-006
195
root  41.6241 38.7418 0.9898 165.893 79.7278 144.811
RightUpLeg  -46.7616 -19.9319 8.63868
RightLeg  17.5131 -1.44754 2.66608
RightFoot  7.04307 2.58049 -15.5351
RightToes  0.00048216 0.542163 -0.142577
Spine  58.496 -4.13078 5.96306
Spine1  7.36997 -2.04528 0.9965
HEad  -29.6288 -4.27445 0.809105
LeftShoulder1  11.4264 -25.6417 -32.9791
LeftArm  -47.9754 -66.1222 6.72183
LeftForeArm  12.5032 -0.553161 -4.40045
LeftHand  -0.25398 0.0180481 5.50724
RightShoulder  6.21564 14.552 28.399
RightArm  -37.4286 60.2974 -1.02653
RightForeArm  -17.7782 12.2659 7.80229
RightHand  -5.99173 16.2962 -31.7306
LeftUpLeg  -43.9216 9.46704 -11.0191
LeftLeg  13.9093 -10.154 -4.01145
LeftFoot  12.7585 2.39199 -11.5871
LeftToes  1.06244e-005 4.65855e-005 -8.18506e-006
196
root  41.123 38.705 0.995389 164.737 79.0315 145.349
RightUpLeg  -45.1754 -19.771 6.83961
RightLeg  17.0917 -2.87747 2.89792
RightFoot  7.74613 2.65803 -15.3844
RightToes  0.00048216 0.542163 -0.142577
Spine  57.9157 -4.19837 6.00504
Spine1  7.71436 -2.29262 1.27955
HEad  -29.171 -4.13234 0.617654
LeftShoulder1  11.5754 -25.7668 -33.3161
LeftArm  -46.237 -67.764 5.53574
LeftForeArm  18.8907 0.175676 -4.96247
LeftHand  -0.25398 0.0180481 5.50724
RightShoulder  6.23023 14.7832 28.0314
RightArm  -37.0299 61.4646 -1.93424
RightForeArm  -15.5449 9.89799 8.35642
RightHand  -7.16562 17.647 -35.4419
LeftUpLeg  -43.7492 10.9937 -12.5336
LeftLeg  17.7765 -10.8021 -3.43711
LeftFoot  9.45596 2.76788 -15.2711
LeftToes  1.06244e-005 4.65855e-005 -8.18506e-006
197
root  40.5867 38.7043 0.949148 162.673 78.2181 145.209
RightUpLeg  -43.1336 -19.5608 4.62192
RightLeg  16.3178 -4.4482 3.11604
RightFoot  8.60558 2.72061 -15.0326
RightToes  0.00048216 0.542163 -0.142577
Spine  57.2731 -4.48004 6.00683
Spine1  8.23049 -2.56553 1.16767
HEad  -29.0762 -3.91909 0.645812
LeftShoulder1  11.5411 -25.7794 -33.1813
LeftArm  -43.6147 -69.4073 2.22213
LeftForeArm  24.1762 1.09239 -5.21279
LeftHand  -0.25398 0.0180481 5.50724
RightShoulder  6.19478 14.9563 27.5018
RightArm  -37.5394 62.72 -1.64413
RightForeArm  -10.7607 6.97291 8.16777
RightHand  -7.50513 17.9076 -36.581
LeftUpLeg  -42.6303 8.7562 -11.0561
LeftLeg  23.1885 -5.62834 -2.27132
LeftFoot  6.21096 2.12503 -13.9057
LeftToes  1.06244e-005 4.65855e-005 -8.18506e-006
198
root  40.0378 38.705 0.852101 160.425 77.4828 144.956
RightUpLeg  -40.8643 -19.0433 2.1246
RightLeg  15.3814 -6.18848 3.46421
RightFoot  9.45977 2.75604 -14.568
RightToes  0.00048216 0.542163 -0.142577
Spine  56.6831 -4.79886 6.0748
Spine1  8.32465 -2.77595 0.876347
HEad  -28.7426 -3.86452 0.813699
LeftShoulder1  11.261 -25.6217 -32.4415
LeftArm  -38.0045 -70.1032 -5.69647
LeftForeArm  27.3036 1.65772 -5.09671
LeftHand  -0.25398 0.0180481 5.50724
RightShoulder  6.13261 14.9693 27.1299
RightArm  -36.5053 63.3005 0.943681
RightForeArm  -6.10648 4.49514 7.46888
RightHand  -7.62084 17.9822 -36.9847
LeftUpLeg  -41.0137 6.19549 -9.66962
LeftLeg  29.3627 0.538293 0.683062
LeftFoot  3.37904 1.34955 -10.5936
LeftToes  1.06244e-005 4.65855e-005 -8.18506e-006
199
root  39.4834 38.6766 0.712845 158.624 77.0095 145.035
RightUpLeg  -38.7563 -18.1786 -0.211968
RightLeg  14.4196 -7.89596 3.87037
RightFoot  10.4799 2.79929 -14.0632
RightToes  0.00048216 0.542163 -0.142577
Spine  56.4799 -4.86287 6.201
Spine1  6.93578 -2.74935 0.921358
HEad  -27.2579 -4.13288 0.693984
LeftShoulder1  11.2242 -25.3752 -32.6493
LeftArm  -29.1349 -68.7451 -17.2129
LeftForeArm  29.1543 1.18348 -5.09907
LeftHand  -0.25398 0.0180481 5.50724
RightShoulder  6.18348 14.8915 27.562
RightArm  -32.701 62.2163 5.46747
RightForeArm  -3.18784 3.42747 7.22593
RightHand  -8.20906 18.904 -38.2022
LeftUpLeg  -39.0171 4.17716 -8.4581
LeftLeg  35.6044 5.12479 4.27387
LeftFoot  0.727516 0.885787 -8.43451
LeftToes  1.06244e-005 4.65855e-005 -8.18506e-006
